<?xml version="1.0" standalone="no"?>
<!DOCTYPE svg PUBLIC "-//W3C//DTD SVG 20010904//EN"
 "http://www.w3.org/TR/2001/REC-SVG-20010904/DTD/svg10.dtd">
<svg version="1.0" xmlns="http://www.w3.org/2000/svg"
 width="512.000000pt" height="512.000000pt" viewBox="0 0 512.000000 512.000000"
 preserveAspectRatio="xMidYMid meet">

<g transform="translate(0.000000,512.000000) scale(0.100000,-0.100000)"
fill="#000000" stroke="none">
<path d="M3629 4905 c-282 -53 -542 -227 -702 -467 -167 -250 -225 -575 -152
-852 9 -32 13 -62 10 -65 -4 -3 -148 -81 -322 -172 l-316 -166 -79 83 c-526
548 -1434 394 -1758 -299 -224 -477 -58 -1055 386 -1353 357 -240 828 -240
1188 0 93 62 197 155 241 215 17 22 33 41 37 41 21 0 618 -301 618 -312 0 -7
-5 -29 -10 -48 -6 -19 -14 -82 -20 -139 -23 -240 40 -483 177 -689 153 -231
386 -391 665 -459 115 -28 375 -25 493 6 245 64 457 204 606 400 70 92 154
267 186 386 23 89 26 118 26 265 0 147 -3 176 -26 265 -101 380 -394 677 -769
781 -116 32 -326 43 -445 24 -244 -39 -501 -180 -646 -355 -28 -35 -57 -64
-62 -64 -9 -1 -604 285 -614 294 -2 2 5 44 14 92 30 148 24 298 -21 498 -4 17
39 43 316 188 l321 167 87 -88 c167 -168 375 -276 604 -312 117 -19 320 -8
438 23 183 48 335 134 477 270 141 136 248 318 300 512 23 89 26 118 26 265 0
147 -3 176 -26 265 -32 119 -116 294 -186 386 -148 195 -361 336 -601 399
-111 29 -348 37 -461 15z m375 -400 c189 -51 349 -182 436 -360 54 -108 73
-190 73 -305 0 -364 -280 -664 -643 -687 -306 -20 -600 179 -697 471 -24 71
-27 97 -27 211 -1 118 2 139 28 219 75 227 276 409 511 460 84 19 232 15 319
-9z m-2546 -1320 c144 -34 301 -139 386 -258 103 -144 142 -275 133 -446 -10
-187 -64 -308 -202 -447 -74 -75 -105 -98 -175 -132 -121 -58 -200 -75 -335
-70 -135 6 -246 41 -353 112 -215 143 -336 406 -302 656 23 165 80 280 200
400 139 140 279 198 480 199 61 0 132 -6 168 -14z m2577 -1249 c189 -61 329
-185 416 -371 46 -100 63 -175 62 -290 -1 -425 -399 -753 -813 -671 -242 48
-440 220 -524 455 -29 80 -31 95 -30 221 0 120 3 144 27 216 74 223 286 412
512 459 103 21 250 13 350 -19z"/>
</g>
</svg>
